<svg width="256" height="256" viewBox="0 0 256 256" fill="none" xmlns="http://www.w3.org/2000/svg">
<path d="M160.3 145.34C159.922 149.354 161.245 153.412 164.067 156.38C166.889 159.347 170.874 160.918 174.496 162.314C178.453 163.827 181.871 165.063 185.565 167.201C189.085 169.238 192.198 171.769 194.801 174.896C205.507 187.681 204.518 206.445 192.547 218.081C180.576 229.717 161.595 230.343 148.867 219.535C145.624 216.772 142.744 213.223 140.373 209.746C136.766 186.619 143.762 162.387 160.3 145.34Z" fill="#87A9FF"/>
<path d="M175.543 133.472C179.514 131.203 183.223 129.603 187.543 128.119C191.703 126.694 195.936 125.515 200.212 124.454C204.474 123.392 208.779 122.49 213.085 121.588C217.39 120.686 221.667 119.814 225.827 118.257C246.204 110.606 258.539 90.054 255.557 68.6869C252.575 47.3199 235.077 30.84 213.361 28.9346C203.499 28.0764 193.972 30.3746 185.158 34.4036C176.373 38.4181 168.329 44.1199 161.333 50.6507C147.195 63.8142 136.751 80.7159 130.38 98.7084C123.966 116.817 121.566 136.293 123.079 155.391C123.835 164.904 125.58 174.475 128.373 183.624C131.108 192.598 135.064 201.864 140.387 209.718C138.089 195.013 140.067 179.813 146.191 166.199C152.3 152.613 162.424 140.977 175.543 133.472Z" fill="#0057CE"/>
<path d="M84.9279 146.49C83.5316 144.948 82.077 143.479 80.4625 142.17C82.4698 145.574 82.6734 149.428 81.8298 153.137C80.9861 156.832 79.1243 160.25 76.768 163.188C74.3389 166.199 71.4881 168.599 68.3899 170.868C65.6845 172.846 61.7427 175.377 59.2991 177.748C52.1137 184.729 50.6446 195.638 55.7355 204.22C60.8264 212.816 71.1535 216.889 80.8261 214.096C86.1643 212.555 90.6879 209.078 94.2805 205.107C97.9169 201.093 100.87 196.322 103.197 191.493C102.6 174.839 96.1423 158.926 84.9279 146.49Z" fill="#87A9FF"/>
<path d="M39.3272 53.793C54.1198 53.7784 68.476 61.9093 78.8759 71.0292C89.9158 80.7163 98.4684 93.0507 104.097 106.462C109.756 119.945 112.476 134.519 112.374 149.079C112.272 163.232 109.45 178.563 103.196 191.493C102.599 174.839 96.1412 158.912 84.9267 146.476C82.9631 144.308 80.9122 142.345 78.4686 140.687C76.025 139.028 73.4505 137.807 70.6723 136.832C65.276 134.941 59.1816 134.054 53.5671 133.443C47.778 132.803 41.9599 132.425 36.1854 131.581C30.251 130.709 24.9274 129.429 19.6329 126.389C4.21487 117.574 -3.26141 99.6252 1.34945 82.6363C5.96031 65.6329 21.5383 53.8075 39.3272 53.793Z" fill="#0057CE"/>
</svg>
